<svg width="239" height="490" viewBox="0 0 239 490" fill="none" xmlns="http://www.w3.org/2000/svg">
<path d="M156.282 120.355C190.716 121.01 216.214 106.777 216.214 72.6725C216.214 42.9383 181.775 41.1023 181.775 24.1865V2.47043C190.052 3.46969 203.63 4.7893 216.544 16.7088C224.82 24.0001 238.729 40.5525 238.729 73.9968C238.729 126.312 206.279 151.141 153.629 151.141C120.849 151.141 93.6965 144.519 75.4898 118.361C64.2301 102.464 63.2356 82.5982 63.2356 72.9928C63.2404 -1.49795 129.13 0.156337 156.282 0.816139V120.355ZM134.427 32.6062C118.535 32.2715 85.4203 35.255 85.4203 73.6669C85.4203 93.8626 97.6744 118.371 134.427 119.031V32.6062Z" fill="#FFCC00"/>
<path d="M70.8569 288.218H177.812C194.034 288.218 214.565 284.574 214.565 252.789C214.565 237.226 209.267 222.658 196.023 213.717C186.093 206.761 173.179 206.761 164.903 206.761C164.903 206.761 70.8617 216.141 70.8617 196.366V174.65H205.963C209.272 174.65 227.813 173.986 237.084 173.651V206.106L208.612 206.761C220.197 212.723 238.738 223.982 238.738 259.741C238.738 300.797 215.234 320.003 182.45 320.003H70.8617V288.213" fill="#FFCC00"/>
<path d="M0 489.577V458.122H97.0149C79.4679 447.856 69.5327 427.326 69.5327 404.147C69.5327 386.6 75.8199 361.437 96.0204 351.831C102.642 348.523 110.589 346.204 134.762 346.204H238.734C238.734 346.204 238.734 342.365 238.734 364.071C238.734 392.199 140.394 377.994 140.394 377.994C125.492 377.994 93.3764 377.994 93.3764 413.752C93.3764 436.931 107.615 448.521 115.561 452.824C124.832 458.122 140.394 458.122 150.66 458.122H238.734V489.577H0Z" fill="#FFCC00"/>
</svg>
