<svg xmlns="http://www.w3.org/2000/svg" viewBox="0 0 499.8 246.86"><defs><style>.cls-1{fill:#fc0;}</style></defs><title>logo</title><g id="Layer_2" data-name="Layer 2"><g id="Layer_1-2" data-name="Layer 1"><path class="cls-1" d="M0,0H31.86V98.27c10.4-17.77,31.2-27.84,54.68-27.84,17.77,0,43.26,6.38,53,26.83,3.35,6.71,5.7,14.76,5.7,39.25V241.82h-18.1c-28.49,0-14.1-99.61-14.1-99.61,0-15.1,0-47.63-36.22-47.63-23.48,0-35.22,14.43-39.58,22.47-5.37,9.39-5.37,25.16-5.37,35.56v89.21H0V0"/><path class="cls-1" d="M206.94,73.45V181.79c0,16.43,3.69,37.22,35.89,37.22,15.76,0,30.52-5.36,39.57-18.78,7.05-10.06,7.05-23.14,7.05-31.52,0,0-9.5-95.26,10.53-95.26h22V210.3c0,3.35.67,22.13,1,31.52H290.12L289.45,213c-6,11.74-17.44,30.52-53.67,30.52-41.59,0-61-23.81-61-57v-113h32.2"/><path class="cls-1" d="M378.56,163.34c-.66,34.88,13.76,60.71,48.3,60.71,30.12,0,32-34.89,49.12-34.89h22c-1,8.39-2.35,22.14-14.42,35.22-7.38,8.39-24.15,22.48-58,22.48-53,0-78.14-32.87-78.14-86.21,0-33.2,6.7-60.7,33.2-79.15,16.1-11.4,36.22-12.41,45.95-12.41,75.46,0,73.79,66.75,73.12,94.25H378.56m88.89-22.14c.34-16.1-2.68-49.64-41.59-49.64-20.46,0-45.28,12.41-45.95,49.64Z"/></g></g></svg>