<svg id="Capa_1" enable-background="new 0 0 512 512" height="512" viewBox="0 0 512 512" width="512" xmlns="http://www.w3.org/2000/svg"><g><path d="m338.833 500.916c-17.886 0-35.521-2.717-52.415-8.076-3.948-1.252-6.134-5.468-4.881-9.417 1.252-3.949 5.468-6.135 9.417-4.881 15.425 4.893 31.535 7.374 47.88 7.374 87.213 0 158.167-70.953 158.167-158.167 0-53.875-27.081-101.548-68.339-130.121-3.14 41.336-20.792 79.767-50.46 109.316-9.755 9.716-20.468 18.131-31.921 25.153-2.312 93.487-79.08 168.818-173.113 168.818-95.486.001-173.168-77.682-173.168-173.166 0-48.525 20.56-95.137 56.407-127.884 3.058-2.793 7.802-2.579 10.596.479 2.793 3.059 2.579 7.802-.479 10.596-32.744 29.912-51.524 72.487-51.524 116.809 0 87.213 70.953 158.167 158.167 158.167 24.252 0 47.248-5.487 67.809-15.284-20.988-14.405-38.673-33.345-51.59-55.355-14.807-25.23-22.953-53.947-23.667-83.305-49.678-30.473-82.884-85.292-82.884-147.721 0-95.484 77.682-173.167 173.167-173.167 39.729 0 78.542 13.792 109.288 38.836 30.31 24.688 51.575 59.196 59.88 97.169.885 4.047-1.678 8.044-5.724 8.929-4.05.887-8.044-1.677-8.929-5.724-15.743-71.972-80.726-124.21-154.517-124.21-82.939 0-151.172 64.165-157.661 145.463 23.234-11.128 48.864-16.965 74.828-16.965 29.012 0 57.591 7.283 82.894 21.094 24.606-13.447 52.812-21.094 82.773-21.094 95.484 0 173.167 77.682 173.167 173.167s-77.683 173.167-173.168 173.167zm-157.654-160.51c4.047 49.917 31.837 95.598 74.762 122.076 41.786-25.768 70.747-70.42 74.882-121.966-23.063 11.064-48.499 16.902-74.823 16.902-26.779-.001-52.163-6.113-74.821-17.012zm-.451-17.075c22.396 12.171 48.04 19.087 75.272 19.087 27.213 0 52.861-6.934 75.27-19.132-1.219-42.929-19.983-83.811-51.907-112.751-3.069-2.782-3.301-7.525-.519-10.594 2.782-3.067 7.525-3.301 10.594-.519 32.825 29.759 52.942 71.052 56.371 114.904 40.112-27.805 66.862-73.653 68.296-125.655-22.396-12.171-48.039-19.087-75.272-19.087-85.733-.001-155.754 68.571-158.105 153.747zm-82.835-134.724c1.417 52.085 28.137 97.97 68.285 125.768 4.121-53.709 32.857-100.64 74.912-129.503-21.105-10.031-44.356-15.29-67.923-15.29-26.333.001-52.283 6.569-75.274 19.025zm3.13 217.121c-.016 0-.031 0-.047 0-3.847-.02-7.23-2.492-8.418-6.152-.028-.086-.054-.172-.079-.259l-10.056-35.277-6.71 35.112c-.777 4.069-4.71 6.733-8.774 5.959-4.069-.778-6.736-4.706-5.959-8.774l11.534-60.351c.824-4.047 4.204-6.971 8.236-7.198 4.036-.213 7.72 2.297 8.966 6.139.028.086.054.172.079.258l11.33 39.742 11.747-39.818c.026-.09.055-.179.084-.268 1.287-3.829 4.989-6.321 9.033-6.043 4.03.271 7.378 3.23 8.142 7.197l10.906 60.418c.736 4.076-1.972 7.977-6.049 8.713-4.073.734-7.977-1.972-8.713-6.049l-6.314-34.986-10.417 35.306c-.026.09-.055.179-.084.268-1.222 3.631-4.608 6.063-8.437 6.063zm314.973 0c-4.134 0-7.489-3.346-7.5-7.482l-.072-29.431-18.418-28.293c-2.26-3.472-1.277-8.118 2.194-10.377 3.472-2.259 8.118-1.277 10.377 2.194l13.352 20.51 13.5-20.676c2.265-3.469 6.911-4.444 10.38-2.179 3.468 2.265 4.444 6.912 2.179 10.38l-18.564 28.43.072 29.406c.01 4.142-3.339 7.508-7.481 7.518-.007 0-.013 0-.019 0zm-142.234-90c-1.875 0-3.751-.698-5.207-2.103l-22.819-22.015v16.618c0 4.142-3.358 7.5-7.5 7.5s-7.5-3.358-7.5-7.5v-61.955c0-4.142 3.358-7.5 7.5-7.5s7.5 3.358 7.5 7.5v14.334l20.751-19.075c3.051-2.803 7.795-2.603 10.598.446 2.803 3.05 2.603 7.794-.446 10.598l-25.481 23.421 27.813 26.833c2.981 2.876 3.066 7.624.19 10.605-1.472 1.525-3.434 2.293-5.399 2.293zm-12.031-180c-21.217 0-38.478-17.261-38.478-38.478s17.261-38.478 38.478-38.478c7.71 0 15.151 2.274 21.519 6.576 3.432 2.319 4.335 6.981 2.016 10.413-2.319 3.433-6.981 4.335-10.413 2.016-3.878-2.62-8.415-4.005-13.121-4.005-12.945 0-23.478 10.532-23.478 23.478s10.532 23.478 23.478 23.478c4.804 0 8.846-1.431 12.013-4.251.618-.55 1.208-1.16 1.757-1.813 2.663-3.173 7.393-3.588 10.566-.925 3.173 2.662 3.588 7.393.925 10.566-1.013 1.208-2.114 2.343-3.271 3.374-5.915 5.265-13.519 8.049-21.991 8.049z"/></g></svg>