<?xml version="1.0" encoding="iso-8859-1"?>
<!-- Generator: Adobe Illustrator 18.0.0, SVG Export Plug-In . SVG Version: 6.00 Build 0)  -->
<!DOCTYPE svg PUBLIC "-//W3C//DTD SVG 1.1//EN" "http://www.w3.org/Graphics/SVG/1.1/DTD/svg11.dtd">
<svg version="1.1" id="Capa_1" xmlns="http://www.w3.org/2000/svg" xmlns:xlink="http://www.w3.org/1999/xlink" x="0px" y="0px"
	 viewBox="0 0 301.193 301.193" style="enable-background:new 0 0 301.193 301.193;" xml:space="preserve">
<g>
	<path d="M291.193,27.051H10c-5.514,0-10,4.486-10,10v181.515c0,5.514,4.486,10,10,10h107.994l-4.916,33.576h-3.981
		c-3.313,0-6,2.687-6,6s2.687,6,6,6h9.161c0.004,0,0.009,0.001,0.013,0.001c0.004,0,0.007-0.001,0.011-0.001h64.631
		c0.004,0,0.007,0.001,0.011,0.001c0.004,0,0.008-0.001,0.011-0.001h9.162c3.313,0,6-2.687,6-6s-2.687-6-6-6h-4.108l-5.755-33.576
		h108.959c5.514,0,10-4.486,10-10V37.051C301.193,31.537,296.708,27.051,291.193,27.051z M289.193,39.051v132.86H12V39.051H289.193z
		 M170.093,228.765l5.721,33.377h-50.609l4.908-33.521c0.003-0.018,0.003-0.036,0.005-0.054h39.951
		C170.079,228.632,170.082,228.698,170.093,228.765z M12,216.566v-32.655h277.193v32.655H12z"/>
	<circle cx="150.597" cy="199.789" r="7.052"/>
</g>
<g>
</g>
<g>
</g>
<g>
</g>
<g>
</g>
<g>
</g>
<g>
</g>
<g>
</g>
<g>
</g>
<g>
</g>
<g>
</g>
<g>
</g>
<g>
</g>
<g>
</g>
<g>
</g>
<g>
</g>
</svg>
