<!-- Generated by IcoMoon.io -->
<svg version="1.1" xmlns="http://www.w3.org/2000/svg" width="32" height="32" viewBox="0 0 32 32">
<title>martini</title>
<path fill="#fffcee" d="M8.98 32h14.092c0.052 0 0.052-0.156 0.052-0.208 0-0.468-3.172-1.872-7.124-1.872s-7.124 1.404-7.124 1.872c0 0.052 0.052 0.208 0.104 0.208z"></path>
<path fill="#fffcee" d="M16.832 30.908l-0.832 0.26-0.832-0.26 0.416-10.348 0.416-0.624 0.416 0.624z"></path>
<path fill="#ede9d9" d="M16 19.936l0.416 0.624 0.416 10.348-0.832 0.26z"></path>
<path fill="#fff" d="M12.424 31.148c-1.069 0.222-1.963 0.265-1.998 0.096s0.803-0.485 1.871-0.707c1.069-0.222 1.963-0.265 1.998-0.096s-0.803 0.485-1.871 0.707z"></path>
<path fill="#fffcee" d="M2.376 8.080l13.624 13.624 13.624-13.624z"></path>
<path fill="#ede9d9" d="M11.58 8.080l4.42 13.624 13.624-13.624z"></path>
<path fill="#e8e3cf" d="M4.456 8.080l11.544 11.544 11.544-11.544z"></path>
<path fill="#d8d2ba" d="M14.076 8.080l1.924 11.544 11.544-11.544z"></path>
<path fill="#0dbc69" d="M8.408 11.72l7.592 7.592 7.592-7.592z"></path>
<path fill="#00a057" d="M14.752 11.72l1.248 7.592 7.592-7.592z"></path>
<path fill="#ede9d9" d="M23.020 32c0.052 0 0.052-0.156 0.052-0.208 0-0.468-3.172-1.924-7.124-1.924v2.132h7.072z"></path>
<path fill="#0dbc69" d="M19.536 15.568c-0.052 0.156-0.208 0.208-0.364 0.156v0c-0.156-0.052-0.208-0.208-0.156-0.364l6.084-15.184c0.052-0.156 0.208-0.208 0.364-0.156v0c0.156 0.052 0.208 0.208 0.156 0.364l-6.084 15.184z"></path>
<path fill="#038443" d="M23.238 4.789l0.531 0.213-0.889 2.221-0.531-0.213 0.889-2.221z"></path>
<path fill="#a51919" d="M25.568 4.336c0 1.005-0.815 1.82-1.82 1.82s-1.82-0.815-1.82-1.82c0-1.005 0.815-1.82 1.82-1.82s1.82 0.815 1.82 1.82z"></path>
<path fill="#8c0303" d="M25.412 3.608c0.416 0.936-0.052 2.028-0.988 2.444s-2.028-0.052-2.444-0.988z"></path>
<path fill="#e25454" d="M23.238 2.948c0.37-0.158 0.715-0.179 0.772-0.047s-0.198 0.367-0.567 0.525c-0.37 0.158-0.715 0.179-0.772 0.047s0.198-0.367 0.567-0.525z"></path>
<path fill="#038443" d="M21.275 9.684l0.531 0.213-0.891 2.22-0.531-0.213 0.891-2.22z"></path>
<path fill="#a51919" d="M23.592 9.224c0 1.005-0.815 1.82-1.82 1.82s-1.82-0.815-1.82-1.82c0-1.005 0.815-1.82 1.82-1.82s1.82 0.815 1.82 1.82z"></path>
<path fill="#8c0303" d="M23.436 8.496c0.416 0.936-0.052 2.028-0.988 2.444s-2.028-0.052-2.444-0.988z"></path>
<path fill="#e25454" d="M21.251 7.839c0.37-0.158 0.715-0.179 0.772-0.047s-0.198 0.367-0.567 0.525c-0.37 0.158-0.715 0.179-0.772 0.047s0.198-0.367 0.567-0.525z"></path>
<path fill="#fffcee" d="M27.544 8.86c0 0.104-0.104 0.26-0.208 0.26h-22.672c-0.104 0-0.208-0.156-0.208-0.26v0c0-0.104 0.104-0.26 0.208-0.26h22.62c0.156 0 0.26 0.156 0.26 0.26v0z"></path>
<path fill="#48ef97" d="M14.856 17.232l-4.576-4.628 2.86 0.988z"></path>
</svg>
