<!-- Generated by IcoMoon.io -->
<svg version="1.1" xmlns="http://www.w3.org/2000/svg" width="45" height="32" viewBox="0 0 45 32">
<title>motorbike</title>
<path fill="#cac9cd" d="M28.179 5.813l-2.341-4.683 1.396-0.698 2.341 4.683-1.396 0.698z"></path>
<path fill="#b9b7bd" d="M39.415 28.097c-1.078 0-1.951-0.874-1.951-1.951s0.874-1.951 1.951-1.951c1.077 0 1.95 0.872 1.951 1.949v0c0 0.001 0 0.002 0 0.003 0 1.078-0.874 1.951-1.951 1.951 0 0 0 0 0 0v0z"></path>
<path fill="#504b5a" d="M39.415 20.292c-3.233 0-5.854 2.621-5.854 5.854s2.621 5.854 5.854 5.854c3.233 0 5.854-2.621 5.854-5.854v0c0-3.233-2.621-5.854-5.854-5.854v0zM39.415 29.656c-1.94 0-3.512-1.572-3.512-3.512s1.572-3.512 3.512-3.512c1.94 0 3.512 1.572 3.512 3.512v0c0 0 0 0.001 0 0.002 0 1.94-1.572 3.512-3.512 3.512v0z"></path>
<path fill="#dcdbde" d="M39.391 26.878c-0 0-0 0-0.001 0-0.283 0-0.53-0.15-0.667-0.375l-0.002-0.003-3.838-6.392c-0.070-0.115-0.111-0.254-0.111-0.402 0-0.431 0.35-0.781 0.781-0.781 0.283 0 0.53 0.15 0.667 0.375l0.002 0.003 3.839 6.39c0.070 0.114 0.111 0.253 0.111 0.401 0 0.431-0.349 0.78-0.78 0.78h-0z"></path>
<path fill="#00aadc" d="M34.179 22.197h7.323c0.303-0 0.565-0.174 0.692-0.427l0.002-0.004 0.405-0.82c0.069-0.137 0.109-0.298 0.109-0.468 0-0.317-0.14-0.602-0.361-0.796l-0.001-0.001c-0.855-0.75-2.765-1.982-6.442-2.507z"></path>
<path fill="#504b5a" d="M7.415 20.292c-3.233 0-5.854 2.621-5.854 5.854s2.621 5.854 5.854 5.854c3.233 0 5.854-2.621 5.854-5.854v0c0-3.233-2.621-5.854-5.854-5.854v0zM7.415 29.656c-1.94 0-3.512-1.572-3.512-3.512s1.572-3.512 3.512-3.512c1.94 0 3.512 1.572 3.512 3.512v0c0 0 0 0.001 0 0.002 0 1.94-1.572 3.512-3.512 3.512v0z"></path>
<path fill="#dcdbde" d="M15.22 28.097h-7.805c-1.078 0-1.951-0.874-1.951-1.951 0-0.001 0-0.002 0-0.003v0c0-1.078 0.874-1.951 1.951-1.951h7.805c1.077 0 1.95 0.874 1.95 1.951v0c0 0.001 0 0.002 0 0.003 0 1.077-0.873 1.951-1.95 1.951h-0z"></path>
<path fill="#00aadc" d="M28.878 25.756l1.35-7.424c0.056-0.294 0.088-0.632 0.088-0.977 0-0.471-0.059-0.927-0.171-1.363l0.008 0.038-2.056-9.003h2.342l3.903 10.146-2.342 8.585h-3.121z"></path>
<path fill="#64bef0" d="M33.617 25.499l3.31-7.171c0.136-0.288 0.216-0.625 0.216-0.982 0-0.466-0.136-0.901-0.371-1.266l0.006 0.009-4.454-7.002c-0.12-0.187-0.328-0.309-0.563-0.309-0.109 0-0.212 0.026-0.303 0.072l0.004-0.002c-0.448 0.228-0.75 0.686-0.75 1.214 0 0.138 0.021 0.272 0.059 0.398l-0.003-0.010 1.286 4.287c0.272 0.873 0.428 1.876 0.428 2.916 0 0.704-0.072 1.391-0.208 2.055l0.011-0.066-0.814 4.069c-0.148 0.72-0.777 1.254-1.53 1.254h-8.089l1.561-8.585-1.561-2.342-10.144-0.774-5.963 0.663c-0.598 0.068-1.058 0.571-1.060 1.181v0c0 0 0 0 0 0.001 0 0.329 0.133 0.627 0.349 0.843v0l1.211 1.216s-6.243 1.562-6.243 5.461v0.78c0 0.431 0.349 0.78 0.78 0.78h11.839c0.431 0 0.821 0.175 1.103 0.457l2.208 2.208c0.282 0.282 0.672 0.457 1.103 0.457h13.747c1.25-0 2.328-0.735 2.827-1.796l0.008-0.019z"></path>
<path fill="#00aadc" d="M23.415 16.387l-1.561-2.342-10.146-0.78-5.963 0.662c-0.598 0.070-1.058 0.573-1.058 1.184 0 0.328 0.132 0.625 0.347 0.84l1.211 1.211h17.028z"></path>
<path fill="#64bef0" d="M32.78 7.804h-3.903c-0.862 0-1.561-0.699-1.561-1.561v0c0-0.862 0.699-1.561 1.561-1.561v0h3.903z"></path>
<path fill="#625d6b" d="M28.878 7.025c-0 0-0.001 0-0.001 0-0.215 0-0.41-0.087-0.551-0.229l-0.552-0.552h-2.018c-0.431 0-0.78-0.349-0.78-0.78s0.349-0.78 0.78-0.78h2.018c0.431 0.001 0.82 0.176 1.104 0.457l0.552 0.552c0.141 0.141 0.229 0.336 0.229 0.552 0 0.431-0.349 0.78-0.78 0.78v0z"></path>
<path fill="#dcdbde" d="M32.78 7.804h-0.78v-3.121h0.78c0.431 0 0.78 0.349 0.78 0.78v0 1.561c0 0.431-0.349 0.78-0.78 0.78v0z"></path>
<path fill="#ededee" d="M9.366 26.146c0 1.078-0.874 1.951-1.951 1.951s-1.951-0.874-1.951-1.951c0-1.078 0.874-1.951 1.951-1.951s1.951 0.874 1.951 1.951z"></path>
<path fill="#625d6b" d="M10.146 13.504v0c0.001 0.35 0.179 0.659 0.449 0.841l0.004 0.002 2.657 1.772c0.973 0.657 2.172 1.049 3.463 1.049 0 0 0.001 0 0.001 0h6.524c0 0 0 0 0 0 0.431 0 0.78-0.349 0.78-0.78 0-0.054-0.006-0.107-0.016-0.159l0.001 0.005-0.092-0.459c-0.296-1.441-1.553-2.51-3.061-2.51-0 0-0 0-0.001 0h-4.189c-0.004 0-0.009 0-0.013 0-0.735 0-1.448-0.092-2.128-0.266l0.059 0.013-1.071-0.267c-0.621-0.161-1.334-0.253-2.069-0.253-0.005 0-0.009 0-0.014 0h-0.267c-0 0-0.001 0-0.001 0-0.56 0-1.014 0.453-1.017 1.012v0z"></path>
<path fill="#00aadc" d="M14.361 21.23l2.342 3.121c0.288 0.381 0.74 0.624 1.249 0.624h3.903l1.136-6.243h-7.379c-0 0-0.001 0-0.001 0-0.862 0-1.561 0.699-1.561 1.561 0 0.353 0.117 0.679 0.315 0.94l-0.003-0.004z"></path>
<path fill="#dcdbde" d="M26.536 3.122h-0.78c-0.431 0-0.78-0.349-0.78-0.78v0-1.561c0-0.431 0.349-0.78 0.78-0.78h0.78c0.862 0 1.561 0.699 1.561 1.561v0 0c0 0.862-0.699 1.561-1.561 1.561v0z"></path>
</svg>
