<!-- Generated by IcoMoon.io -->
<svg version="1.1" xmlns="http://www.w3.org/2000/svg" width="32" height="32" viewBox="0 0 32 32">
<title>pint</title>
<path fill="#e6e6e6" d="M27.385 12.45h-3.692v2.462h2.462c0.677 0 1.231 0.554 1.231 1.231v6.154c0 0.677-0.554 1.231-1.231 1.231h-2.462v2.462h3.692c1.354 0 2.462-1.108 2.462-2.462v-8.615c0-1.354-1.108-2.462-2.462-2.462z"></path>
<path fill="#e6e6e6" d="M20 2.462c-0.851 0-1.633 0.29-2.257 0.774-0.613-1.19-1.851-2.005-3.282-2.005-0.522 0-1.018 0.11-1.469 0.305-0.732-0.934-1.868-1.536-3.146-1.536-1.923 0-3.527 1.357-3.911 3.166-0.227-0.054-0.461-0.089-0.704-0.089-1.699 0-3.077 1.378-3.077 3.077v4.923c0 0.677 0.554 1.231 1.231 1.231h0.615c0.677 0 1.231-0.554 1.231-1.231v-0.982c0.373 0.228 0.806 0.367 1.273 0.367h1.21c0.785 0 1.478-0.378 1.93-0.954 0.67 0.947 1.772 1.57 3.014 1.57 2.031 0 3.692-1.662 3.692-3.692h7.128c0.137-0.385 0.215-0.799 0.215-1.231 0-2.039-1.653-3.692-3.692-3.692z"></path>
<path fill="#f4c44e" d="M16.35 7.385c0 2.031-1.662 3.692-3.692 3.692-1.242 0-2.343-0.623-3.014-1.57-0.452 0.576-1.145 0.954-1.93 0.954h-1.21c-0.466 0-0.9-0.138-1.273-0.367v18.828c0 1.692 1.385 3.077 3.077 3.077h12.308c1.692 0 3.077-1.385 3.077-3.077v-21.538h-7.343z"></path>
<path fill="#f9da49" d="M8.923 15.385c0-1.015-0.831-1.846-1.846-1.846s-1.846 0.831-1.846 1.846v12.923h3.692v-12.923z"></path>
<path fill="#eeaf4b" d="M12.615 15.385c0-1.015-0.831-1.846-1.846-1.846s-1.846 0.831-1.846 1.846v12.923h3.692v-12.923z"></path>
<path fill="#f9da49" d="M16.308 15.385c0-1.015-0.831-1.846-1.846-1.846s-1.846 0.831-1.846 1.846v12.923h3.692v-12.923z"></path>
<path fill="#eeaf4b" d="M20 15.385c0-1.015-0.831-1.846-1.846-1.846s-1.846 0.831-1.846 1.846v12.923h3.692v-12.923z"></path>
<path fill="#f9da49" d="M23.692 15.385c0-1.015-0.831-1.846-1.846-1.846s-1.846 0.831-1.846 1.846v12.923h3.692v-12.923z"></path>
</svg>
