<!-- Generated by IcoMoon.io -->
<svg version="1.1" xmlns="http://www.w3.org/2000/svg" width="32" height="32" viewBox="0 0 32 32">
<title>sunglasses</title>
<path d="M0.169 12.717c0.226 0.226 1.356 0.904 1.582 1.581s0.679 5.008 2.036 6.138c1.4 1.162 6.678 0.729 7.689 0.227 2.262-1.128 2.539-4.77 2.939-6.364 0.226-0.903 1.582-0.903 1.582-0.903s1.358 0 1.583 0.902c0.4 1.596 0.679 5.248 2.939 6.374 1.012 0.505 6.29 0.938 7.692-0.225 1.354-1.129 1.807-5.472 2.033-6.149 0.225-0.677 1.356-1.354 1.582-1.58s0.227-1.129 0-1.355c-0.452-0.451-5.788-0.853-11.534-0.226-1.146 0.125-1.582 0.452-4.297 0.452-2.713 0-3.151-0.326-4.296-0.451-5.744-0.628-11.082-0.226-11.534 0.225-0.226 0.226-0.226 1.129 0 1.355z"></path>
</svg>
